<mxfile host="app.diagrams.net" agent="Mozilla/5.0 (Windows NT 10.0; Win64; x64) AppleWebKit/537.36 (KHTML, like Gecko) Chrome/130.0.0.0 Safari/537.36 Edg/130.0.0.0" version="24.8.4">
  <diagram name="Page-1" id="WIjgklSP1sb5MxO0kjZO">
    <mxGraphModel dx="1431" dy="807" grid="1" gridSize="10" guides="1" tooltips="1" connect="1" arrows="1" fold="1" page="1" pageScale="1" pageWidth="850" pageHeight="1100" math="0" shadow="0">
      <root>
        <mxCell id="0" />
        <mxCell id="1" parent="0" />
        <mxCell id="VspfxgM5TLs2LgfIdt-c-3" value="User" style="whiteSpace=wrap;strokeWidth=2;" vertex="1" parent="1">
          <mxGeometry x="428" y="20" width="93" height="48" as="geometry" />
        </mxCell>
        <mxCell id="VspfxgM5TLs2LgfIdt-c-4" value="E-Commerce System" style="whiteSpace=wrap;strokeWidth=2;" vertex="1" parent="1">
          <mxGeometry x="371" y="141" width="206" height="48" as="geometry" />
        </mxCell>
        <mxCell id="VspfxgM5TLs2LgfIdt-c-5" value="Product Database" style="whiteSpace=wrap;strokeWidth=2;" vertex="1" parent="1">
          <mxGeometry x="20" y="262" width="185" height="48" as="geometry" />
        </mxCell>
        <mxCell id="VspfxgM5TLs2LgfIdt-c-6" value="Order Management" style="whiteSpace=wrap;strokeWidth=2;" vertex="1" parent="1">
          <mxGeometry x="255" y="262" width="196" height="48" as="geometry" />
        </mxCell>
        <mxCell id="VspfxgM5TLs2LgfIdt-c-7" value="Cart Management" style="whiteSpace=wrap;strokeWidth=2;" vertex="1" parent="1">
          <mxGeometry x="502" y="262" width="186" height="48" as="geometry" />
        </mxCell>
        <mxCell id="VspfxgM5TLs2LgfIdt-c-8" value="Wishlist Management" style="whiteSpace=wrap;strokeWidth=2;" vertex="1" parent="1">
          <mxGeometry x="738" y="262" width="212" height="48" as="geometry" />
        </mxCell>
        <mxCell id="VspfxgM5TLs2LgfIdt-c-9" value="Interacts" style="curved=1;startArrow=none;endArrow=block;exitX=0.5;exitY=1.01;entryX=0.5;entryY=0;rounded=0;" edge="1" parent="1" source="VspfxgM5TLs2LgfIdt-c-3" target="VspfxgM5TLs2LgfIdt-c-4">
          <mxGeometry relative="1" as="geometry">
            <Array as="points" />
          </mxGeometry>
        </mxCell>
        <mxCell id="VspfxgM5TLs2LgfIdt-c-10" value="Provides" style="curved=1;startArrow=none;endArrow=block;exitX=0;exitY=0.86;entryX=0.5;entryY=-0.01;rounded=0;" edge="1" parent="1" source="VspfxgM5TLs2LgfIdt-c-4" target="VspfxgM5TLs2LgfIdt-c-5">
          <mxGeometry relative="1" as="geometry">
            <Array as="points">
              <mxPoint x="113" y="225" />
            </Array>
          </mxGeometry>
        </mxCell>
        <mxCell id="VspfxgM5TLs2LgfIdt-c-11" value="Provides" style="curved=1;startArrow=none;endArrow=block;exitX=0.27;exitY=1;entryX=0.5;entryY=-0.01;rounded=0;" edge="1" parent="1" source="VspfxgM5TLs2LgfIdt-c-4" target="VspfxgM5TLs2LgfIdt-c-6">
          <mxGeometry relative="1" as="geometry">
            <Array as="points">
              <mxPoint x="354" y="225" />
            </Array>
          </mxGeometry>
        </mxCell>
        <mxCell id="VspfxgM5TLs2LgfIdt-c-12" value="Provides" style="curved=1;startArrow=none;endArrow=block;exitX=0.74;exitY=1;entryX=0.5;entryY=-0.01;rounded=0;" edge="1" parent="1" source="VspfxgM5TLs2LgfIdt-c-4" target="VspfxgM5TLs2LgfIdt-c-7">
          <mxGeometry relative="1" as="geometry">
            <Array as="points">
              <mxPoint x="595" y="225" />
            </Array>
          </mxGeometry>
        </mxCell>
        <mxCell id="VspfxgM5TLs2LgfIdt-c-13" value="Provides" style="curved=1;startArrow=none;endArrow=block;exitX=1;exitY=0.85;entryX=0.5;entryY=-0.01;rounded=0;" edge="1" parent="1" source="VspfxgM5TLs2LgfIdt-c-4" target="VspfxgM5TLs2LgfIdt-c-8">
          <mxGeometry relative="1" as="geometry">
            <Array as="points">
              <mxPoint x="844" y="225" />
            </Array>
          </mxGeometry>
        </mxCell>
      </root>
    </mxGraphModel>
  </diagram>
</mxfile>
